<svg xmlns="http://www.w3.org/2000/svg" viewBox="0 0 256.82 543.26"><defs><style>.cls-1{font-size:35px;fill:#1d1d1b;font-family:JosefinSans-Regular, Josefin Sans;}.cls-2{letter-spacing:-0.01em;}.cls-3,.cls-5{fill:#1e9d41;}.cls-4{fill:#fff;}.cls-5{font-size:35.93px;font-family:CenturyGothic, Century Gothic;letter-spacing:0.05em;}.cls-6{fill:#f6f6f6;}</style></defs><g id="Calque_2" data-name="Calque 2"><g id="Calque_2-2" data-name="Calque 2"><text class="cls-1" transform="translate(51.28 31.53)">CE<tspan class="cls-2" x="47.11" y="0">R</tspan><tspan x="69.82" y="0">TIFIÉ</tspan></text><text class="cls-1" transform="translate(47.54 534.97)">FR-BIO-01</text></g><g id="Calque_1-2" data-name="Calque 1"><rect class="cls-3" x="0.22" y="37.78" width="255.23" height="464.89"/><path class="cls-4" d="M198.63,220.23q-5.43-4.6-15.49-8a31,31,0,0,0,12.31-11.45,30.06,30.06,0,0,0,4.19-15.66,30.66,30.66,0,0,0-4.78-16.76,28.82,28.82,0,0,0-13-11.18q-8.25-3.65-23.6-3.64H132.8v129h35.44q19.13,0,30.48-10.74a34.78,34.78,0,0,0,11.36-26.28,33.42,33.42,0,0,0-3-14.17A32.29,32.29,0,0,0,198.63,220.23Zm-53.2-54.08h14.94q13.55,0,19.74,5t6.2,13.91a20.73,20.73,0,0,1-3.69,12,21.34,21.34,0,0,1-10,7.9q-6.33,2.5-19.78,2.5h-7.38Zm47.32,92.38a23.54,23.54,0,0,1-10.59,8.64q-6.58,2.76-20.74,2.76h-16V220.45h7.3q16.35,0,22.94,1.58,9.84,2.37,15.46,8.77a22.57,22.57,0,0,1,1.62,27.73Z"/><path class="cls-4" d="M114.59,153.2a7.5,7.5,0,0,0-2.56.46C94.4,155,72.5,171.93,52.9,199.6c-18,25.41-29.43,53-31.43,75.42-.2,2.33-.31,4.61-.31,6.83H36.25a62.53,62.53,0,0,1,.4-6.83A110.63,110.63,0,0,1,44,247h63v35.57h15.09V160.75A7.55,7.55,0,0,0,114.59,153.2ZM65.22,208.32c14.09-19.9,29.67-34,41.82-38.28V231.9H50.89A194.84,194.84,0,0,1,65.22,208.32Z"/><path class="cls-4" d="M222,125.45a40.62,40.62,0,0,0-36.68,23.27,48.08,48.08,0,0,0-27.79-57.35,42.9,42.9,0,0,0,26.18,61,2.29,2.29,0,0,0-.1.23,43,43,0,0,0,51-25.15A40.47,40.47,0,0,0,222,125.45Z"/><rect class="cls-4" x="0.09" y="290.14" width="255.49" height="68.56"/><rect class="cls-4" y="43.55" width="255.49" height="40.7"/><text class="cls-5" transform="translate(52.62 79.57)">CERTIFIÉ</text><text class="cls-5" transform="translate(0.75 322.48)">AGRICULTURE<tspan x="8.72" y="30.18">BIOLOGIQUE</tspan></text><polygon class="cls-6" points="219.95 383.74 214.89 388.91 216.55 393.28 210.56 392.4 204.34 397.99 206.34 391.56 201.59 389.44 208.98 386.7 211.25 380.81 213.2 385.54 219.95 383.74"/><polygon class="cls-6" points="203.02 411.66 197.16 417.44 199.06 423.42 193.47 421.3 187.03 426.58 188.62 419.72 183.97 416.87 190.94 415.08 193.51 408.29 195.37 414.13 203.02 411.66"/><polygon class="cls-6" points="186.71 441.46 181.02 445.93 183.55 451.69 176.8 447.58 171.32 450 172.16 444.41 167.51 439.92 174.26 440.51 176.19 434.64 179.02 441.35 186.71 441.46"/><polygon class="cls-6" points="185.04 391.69 180.18 395.99 181.65 401.79 176.42 399.25 171.42 402.95 172.28 396.39 167.51 392.29 173.95 392.19 176.17 385.23 178.38 391.5 185.04 391.69"/><polygon class="cls-6" points="167.51 461.88 161.4 464.99 164.22 472.05 156.01 465.72 150.22 467.4 151.29 460.74 145.57 454.23 153.34 457.39 155.59 451.69 159.18 459.4 167.51 461.88"/><polygon class="cls-6" points="152.22 391.5 146.74 393.54 148.21 400.2 142.01 395.32 137.03 396.51 138.29 390.92 132.7 385.64 140.29 387.44 141.98 381.32 144.94 388.91 152.22 391.5"/><path class="cls-6" d="M149.1,418.88v0A222.58,222.58,0,0,0,54.61,473l3.29,8.67-8.55-2.53-9.18,8.54,3-9.36-7.44-1.67,9.2-5.75,4.18-11,3.7,7.52a217.44,217.44,0,0,1,96.07-49.12v0a.7.7,0,0,1,.25-.05c.17,0,.34.15.33.32a.32.32,0,0,1-.19.25Z"/><polygon class="cls-6" points="137.13 470.58 131.75 472.99 133.75 480.6 127.25 474.59 120.67 477.12 122.67 470.05 116.98 463.83 124.47 466.15 126.69 460.56 129.53 467.4 137.13 470.58"/><polygon class="cls-6" points="120.04 391.03 113.92 394.19 116.76 401.16 108.85 395.77 101.93 398.31 103.16 391.98 95.77 387.33 104.84 387.97 106.64 381.85 111.8 389.12 120.04 391.03"/><polygon class="cls-6" points="103.89 466.04 96.69 471.57 98.62 479.97 92.08 475.01 84.16 480.6 86.91 472.05 81.45 467.55 89.47 466.53 93.34 458.44 95.66 466.04 103.89 466.04"/><polygon class="cls-6" points="93.34 405.17 87.12 409.7 89.86 416.14 81.74 412.13 73.83 416.72 75.72 410.23 68.23 407.67 77.94 405.8 80.39 398.81 84.9 405.37 93.34 405.17"/><polygon class="cls-6" points="77.41 434.49 69.71 437.56 69.29 445.25 62.98 439.61 54.6 443.99 59.09 437.19 52.79 433.23 62.85 432.91 68.13 426.05 69.2 433.07 77.41 434.49"/></g></g></svg>